<svg width="21" height="21" fill="none" xmlns="http://www.w3.org/2000/svg"><path d="M10.5 13.628a.977.977 0 01-.328-.054.758.758 0 01-.285-.187l-3.15-3.15a.83.83 0 01-.24-.612.83.83 0 01.24-.613.88.88 0 01.624-.25.81.81 0 01.623.229l1.641 1.64V4.375c0-.248.084-.456.252-.624A.843.843 0 0110.5 3.5c.248 0 .456.084.624.252a.843.843 0 01.251.623v6.256l1.64-1.64a.81.81 0 01.624-.23.875.875 0 01.623.252.83.83 0 01.241.612.83.83 0 01-.24.613l-3.15 3.15a.773.773 0 01-.285.186.948.948 0 01-.328.054zM5.25 17.5c-.481 0-.893-.172-1.236-.515A1.682 1.682 0 013.5 15.75V14c0-.248.084-.456.252-.624a.843.843 0 01.623-.251c.248 0 .456.084.624.252A.843.843 0 015.25 14v1.75h10.5V14c0-.248.084-.456.252-.624a.843.843 0 01.623-.251c.248 0 .456.084.624.252A.843.843 0 0117.5 14v1.75c0 .481-.172.893-.515 1.236a1.682 1.682 0 01-1.235.514H5.25z" fill="#fff"/></svg>