<svg width="30" height="30" fill="none" xmlns="http://www.w3.org/2000/svg"><path d="M17.5 4.086c0-.876-.71-1.586-1.586-1.586h-1.826c-.878 0-1.588.71-1.588 1.586 0 .723-.495 1.343-1.169 1.608-.106.042-.212.087-.316.132-.664.288-1.453.2-1.965-.311a1.586 1.586 0 00-2.243 0L5.516 6.808a1.586 1.586 0 000 2.242c.513.512.6 1.3.31 1.965a7.8 7.8 0 00-.131.316c-.265.674-.885 1.169-1.608 1.169-.876 0-1.586.71-1.586 1.586v1.828c0 .876.71 1.586 1.586 1.586.723 0 1.343.495 1.608 1.169.042.106.087.212.131.316.289.664.201 1.453-.31 1.965a1.586 1.586 0 000 2.242l1.293 1.293a1.586 1.586 0 002.242 0c.512-.512 1.3-.6 1.965-.311.104.046.21.09.316.132.674.265 1.169.885 1.169 1.608 0 .876.71 1.586 1.586 1.586h1.828c.876 0 1.586-.71 1.586-1.586 0-.723.495-1.343 1.169-1.609.106-.041.212-.085.316-.13.664-.29 1.453-.201 1.964.31a1.584 1.584 0 002.243 0l1.293-1.293a1.586 1.586 0 000-2.242c-.512-.512-.6-1.3-.311-1.965.046-.104.09-.21.132-.316.265-.674.885-1.169 1.608-1.169.876 0 1.586-.71 1.586-1.586v-1.826c0-.877-.71-1.587-1.586-1.587-.723 0-1.343-.495-1.609-1.168a9.791 9.791 0 00-.131-.317c-.288-.664-.2-1.452.311-1.965a1.586 1.586 0 000-2.242l-1.293-1.293a1.586 1.586 0 00-2.242 0c-.512.513-1.3.6-1.965.311a9.93 9.93 0 00-.316-.132c-.674-.266-1.169-.888-1.169-1.609z" stroke="#fff" stroke-width="2"/><path d="M20 15a5 5 0 11-10 0 5 5 0 0110 0z" stroke="#fff" stroke-width="2"/></svg>