<svg width="32" height="32" fill="none" xmlns="http://www.w3.org/2000/svg"><g clip-path="url(#clip0_151_1487)"><mask id="a" style="mask-type:luminance" maskUnits="userSpaceOnUse" x="0" y="0" width="32" height="32"><path d="M0 0h32v32H0V0z" fill="#fff"/></mask><g mask="url(#a)"><path d="M13.2 22.627l9.915-9.915a10.665 10.665 0 002.86-5.187l.424-1.868-1.87.423a10.667 10.667 0 00-5.186 2.861l-7.087 7.086m.944 6.6l2.828 4.713c1.57-1.57 3.77-3.77 0-7.543l-2.828 2.83zm0 0l-3.772-3.772m2.828-2.828c-3.77-3.772-5.97-1.572-7.541 0l4.713 2.828m2.828-2.828l-2.828 2.828M6.6 21.684s-2.27 3.387-.942 4.715c1.326 1.328 4.713-.943 4.713-.943" stroke="#fff" stroke-width="3" stroke-linecap="round" stroke-linejoin="round"/></g></g><defs><clipPath id="clip0_151_1487"><path fill="#fff" d="M0 0h32v32H0z"/></clipPath></defs></svg>