<svg width="12" height="20" viewBox="0 0 12 20" fill="none" xmlns="http://www.w3.org/2000/svg">
<path d="M9.12482 19.1L0.69982 10.7C0.59982 10.6 0.52882 10.4917 0.48682 10.375C0.44482 10.2583 0.424154 10.1333 0.42482 9.99999C0.42482 9.86666 0.445487 9.74166 0.48682 9.62499C0.528153 9.50833 0.599153 9.39999 0.69982 9.29999L9.12482 0.874994C9.35815 0.64166 9.64982 0.524994 9.99982 0.524994C10.3498 0.524994 10.6498 0.649994 10.8998 0.899994C11.1498 1.14999 11.2748 1.44166 11.2748 1.77499C11.2748 2.10833 11.1498 2.39999 10.8998 2.64999L3.54982 9.99999L10.8998 17.35C11.1332 17.5833 11.2498 17.871 11.2498 18.213C11.2498 18.555 11.1248 18.8507 10.8748 19.1C10.6248 19.35 10.3332 19.475 9.99982 19.475C9.66649 19.475 9.37482 19.35 9.12482 19.1Z" fill="white"/>
</svg>
