<svg width="12" height="7" viewBox="0 0 12 7" fill="none" xmlns="http://www.w3.org/2000/svg">
<path d="M6.0002 0.0249963C6.13353 0.0249963 6.26286 0.0499969 6.3882 0.0999971C6.51353 0.149997 6.61753 0.216663 6.7002 0.299997L11.3002 4.9C11.4835 5.08333 11.5752 5.31666 11.5752 5.6C11.5752 5.88333 11.4835 6.11666 11.3002 6.3C11.1169 6.48333 10.8835 6.575 10.6002 6.575C10.3169 6.575 10.0835 6.48333 9.9002 6.3L6.0002 2.4L2.1002 6.3C1.91686 6.48333 1.68353 6.575 1.4002 6.575C1.11686 6.575 0.88353 6.48333 0.700196 6.3C0.516863 6.11666 0.425195 5.88333 0.425195 5.6C0.425195 5.31666 0.516863 5.08333 0.700196 4.9L5.3002 0.299997C5.4002 0.199997 5.50853 0.128996 5.6252 0.0869965C5.74186 0.0449967 5.86686 0.0243296 6.0002 0.0249963Z" fill="white"/>
</svg>
