<svg width="14" height="17" viewBox="0 0 14 17" fill="none" xmlns="http://www.w3.org/2000/svg">
<path d="M12.0007 3.50008H10.334C10.334 1.65841 8.84232 0.166748 7.00065 0.166748C5.15898 0.166748 3.66732 1.65841 3.66732 3.50008H2.00065C1.08398 3.50008 0.333984 4.25008 0.333984 5.16675V15.1667C0.333984 16.0834 1.08398 16.8334 2.00065 16.8334H12.0007C12.9173 16.8334 13.6673 16.0834 13.6673 15.1667V5.16675C13.6673 4.25008 12.9173 3.50008 12.0007 3.50008ZM5.33398 6.83341C5.33398 7.29175 4.95898 7.66675 4.50065 7.66675C4.04232 7.66675 3.66732 7.29175 3.66732 6.83341V5.16675H5.33398V6.83341ZM7.00065 1.83341C7.91732 1.83341 8.66732 2.58341 8.66732 3.50008H5.33398C5.33398 2.58341 6.08398 1.83341 7.00065 1.83341ZM10.334 6.83341C10.334 7.29175 9.95898 7.66675 9.50065 7.66675C9.04232 7.66675 8.66732 7.29175 8.66732 6.83341V5.16675H10.334V6.83341Z" fill="white"/>
</svg>
