<svg width="21" height="21" viewBox="0 0 21 21" fill="none" xmlns="http://www.w3.org/2000/svg">
<path d="M10.5 13.6281C10.3833 13.6281 10.274 13.61 10.1719 13.5739C10.0698 13.5377 9.975 13.4756 9.8875 13.3875L6.7375 10.2375C6.57708 10.0771 6.49688 9.87292 6.49688 9.625C6.49688 9.37709 6.57708 9.17292 6.7375 9.0125C6.89792 8.85209 7.10588 8.76838 7.36138 8.76138C7.61688 8.75438 7.82454 8.83079 7.98438 8.99063L9.625 10.6313V4.375C9.625 4.12709 9.709 3.91913 9.877 3.75113C10.045 3.58313 10.2527 3.49942 10.5 3.5C10.7479 3.5 10.9559 3.584 11.1239 3.752C11.2919 3.92 11.3756 4.12767 11.375 4.375V10.6313L13.0156 8.99063C13.176 8.83021 13.384 8.7535 13.6395 8.7605C13.895 8.7675 14.1027 8.8515 14.2625 9.0125C14.4229 9.17292 14.5031 9.37709 14.5031 9.625C14.5031 9.87292 14.4229 10.0771 14.2625 10.2375L11.1125 13.3875C11.025 13.475 10.9302 13.5371 10.8281 13.5739C10.726 13.6106 10.6167 13.6287 10.5 13.6281ZM5.25 17.5C4.76875 17.5 4.35663 17.3285 4.01363 16.9855C3.67063 16.6425 3.49942 16.2307 3.5 15.75V14C3.5 13.7521 3.584 13.5441 3.752 13.3761C3.92 13.2081 4.12767 13.1244 4.375 13.125C4.62292 13.125 4.83088 13.209 4.99888 13.377C5.16688 13.545 5.25058 13.7527 5.25 14V15.75H15.75V14C15.75 13.7521 15.834 13.5441 16.002 13.3761C16.17 13.2081 16.3777 13.1244 16.625 13.125C16.8729 13.125 17.0809 13.209 17.2489 13.377C17.4169 13.545 17.5006 13.7527 17.5 14V15.75C17.5 16.2313 17.3285 16.6434 16.9855 16.9864C16.6425 17.3294 16.2307 17.5006 15.75 17.5H5.25Z" fill="white"/>
</svg>
