<svg width="14" height="16" viewBox="0 0 14 16" fill="none" xmlns="http://www.w3.org/2000/svg">
<path d="M6.99979 0.5C7.79544 0.5 8.5585 0.816071 9.12111 1.37868C9.68372 1.94129 9.99979 2.70435 9.99979 3.5H11.526C11.9147 3.49995 12.2882 3.65074 12.5678 3.92061C12.8475 4.19048 13.0115 4.55836 13.0253 4.94675L13.3463 13.9468C13.3534 14.148 13.32 14.3487 13.2479 14.5368C13.1758 14.7249 13.0666 14.8965 12.9268 15.0415C12.7869 15.1864 12.6193 15.3017 12.4339 15.3805C12.2485 15.4593 12.0492 15.4999 11.8478 15.5H2.15179C1.95037 15.4999 1.75103 15.4593 1.56566 15.3805C1.38028 15.3017 1.21268 15.1864 1.07283 15.0415C0.932982 14.8965 0.823761 14.7249 0.751681 14.5368C0.679601 14.3487 0.646139 14.148 0.653289 13.9468L0.974289 4.94675C0.988086 4.55836 1.15209 4.19048 1.43175 3.92061C1.71141 3.65074 2.0849 3.49995 2.47354 3.5H3.99979C3.99979 2.70435 4.31586 1.94129 4.87847 1.37868C5.44108 0.816071 6.20414 0.5 6.99979 0.5ZM5.49979 5H3.99979V5.75C4 5.94116 4.0732 6.12502 4.20443 6.26403C4.33565 6.40303 4.515 6.48668 4.70584 6.49788C4.89667 6.50908 5.08457 6.44699 5.23116 6.3243C5.37775 6.20161 5.47196 6.02757 5.49454 5.83775L5.49979 5.75V5ZM9.99979 5H8.49979V5.75C8.49979 5.94891 8.57881 6.13968 8.71946 6.28033C8.86011 6.42098 9.05088 6.5 9.24979 6.5C9.4487 6.5 9.63947 6.42098 9.78012 6.28033C9.92077 6.13968 9.99979 5.94891 9.99979 5.75V5ZM6.99979 2C6.62136 1.99988 6.25686 2.1428 5.97938 2.40012C5.70189 2.65744 5.53192 3.01013 5.50354 3.3875L5.49979 3.5H8.49979C8.49979 3.10218 8.34175 2.72064 8.06045 2.43934C7.77914 2.15804 7.39761 2 6.99979 2Z" fill="white"/>
</svg>
