<svg width="68" height="68" viewBox="0 0 68 68" fill="none" xmlns="http://www.w3.org/2000/svg">
<circle cx="34" cy="34" r="34" fill="#3BAE1E" fill-opacity="0.09"/>
<circle cx="34" cy="34" r="33" stroke="#3BAE1E" stroke-opacity="0.22" stroke-width="2"/>
<path d="M48.1147 22.7311L45.5603 20.9964C45.2211 20.7681 44.8056 20.683 44.404 20.7594C44.0024 20.8359 43.6472 21.0679 43.4157 21.4048L30.9111 39.8465L25.1633 34.0987C24.8729 33.8114 24.481 33.6503 24.0725 33.6503C23.6641 33.6503 23.2722 33.8114 22.9818 34.0987L20.8002 36.2845C20.6567 36.4278 20.5429 36.5979 20.4653 36.7852C20.3876 36.9725 20.3477 37.1733 20.3477 37.376C20.3477 37.5787 20.3876 37.7795 20.4653 37.9668C20.5429 38.1541 20.6567 38.3242 20.8002 38.4675L29.6361 47.3077C30.1327 47.8015 30.9097 48.1828 31.6099 48.1828C32.31 48.1828 33.0159 47.7417 33.4698 47.0814L48.526 24.8728C48.755 24.5341 48.8402 24.1185 48.7631 23.717C48.686 23.3155 48.4529 22.9609 48.1147 22.7311Z" fill="#3BAE1E"/>
</svg>
