<svg width="30" height="30" viewBox="0 0 30 30" fill="none" xmlns="http://www.w3.org/2000/svg">
<path d="M27.4672 24.6094C25.8605 21.7895 23.3516 19.5923 20.3445 18.3715C21.8399 17.2499 22.9445 15.6863 23.5019 13.902C24.0593 12.1178 24.0411 10.2034 23.45 8.43009C22.8589 6.65675 21.7248 5.11434 20.2083 4.02136C18.6919 2.92839 16.87 2.34024 15.0008 2.34024C13.1315 2.34024 11.3096 2.92839 9.79319 4.02136C8.27677 5.11434 7.14267 6.65675 6.55156 8.43009C5.96044 10.2034 5.94228 12.1178 6.49963 13.902C7.05699 15.6863 8.16161 17.2499 9.65702 18.3715C6.6499 19.5923 4.14105 21.7895 2.53436 24.6094C2.43481 24.7695 2.36845 24.9479 2.33925 25.1342C2.31004 25.3204 2.31858 25.5106 2.36435 25.6935C2.41012 25.8764 2.4922 26.0482 2.60569 26.1987C2.71919 26.3492 2.86179 26.4754 3.02502 26.5697C3.18825 26.664 3.36877 26.7245 3.55586 26.7476C3.74295 26.7708 3.93278 26.7561 4.11407 26.7044C4.29536 26.6527 4.46441 26.5651 4.61117 26.4468C4.75792 26.3285 4.87939 26.1818 4.96835 26.0156C7.09178 22.3453 10.8418 20.1563 15.0008 20.1563C19.1598 20.1563 22.9098 22.3465 25.0332 26.0156C25.226 26.3256 25.5318 26.5485 25.8859 26.6371C26.24 26.7258 26.6147 26.6732 26.9308 26.4906C27.2469 26.308 27.4796 26.0096 27.5797 25.6585C27.6798 25.3075 27.6394 24.9312 27.4672 24.6094ZM8.90702 11.25C8.90702 10.0448 9.26441 8.86661 9.934 7.8645C10.6036 6.86239 11.5553 6.08134 12.6688 5.62012C13.7823 5.15889 15.0075 5.03822 16.1896 5.27335C17.3717 5.50847 18.4575 6.08885 19.3097 6.94107C20.1619 7.7933 20.7423 8.8791 20.9774 10.0612C21.2126 11.2432 21.0919 12.4685 20.6307 13.582C20.1694 14.6955 19.3884 15.6472 18.3863 16.3168C17.3842 16.9864 16.206 17.3438 15.0008 17.3438C13.3852 17.3419 11.8363 16.6993 10.6939 15.5569C9.5515 14.4145 8.90888 12.8656 8.90702 11.25Z" fill="white"/>
</svg>
